<mxfile host="app.diagrams.net" modified="2020-10-27T15:17:00.874Z" agent="5.0 (Windows NT 10.0; Win64; x64) AppleWebKit/537.36 (KHTML, like Gecko) Chrome/86.0.4240.111 Safari/537.36 Edg/86.0.622.51" etag="gkyxZWrET3ncrayfgJoc" version="13.8.5" type="github">
  <diagram id="QfnHBL_MMt58cB9VY2az" name="Page-1">
    <mxGraphModel dx="868" dy="482" grid="1" gridSize="10" guides="1" tooltips="1" connect="1" arrows="1" fold="1" page="1" pageScale="1" pageWidth="827" pageHeight="1169" math="0" shadow="0">
      <root>
        <mxCell id="0" />
        <mxCell id="1" parent="0" />
        <mxCell id="5rCnG3w5GIJXIeiVDlWR-1" value="" style="shape=umlLifeline;participant=umlActor;perimeter=lifelinePerimeter;whiteSpace=wrap;html=1;container=1;collapsible=0;recursiveResize=0;verticalAlign=top;spacingTop=36;outlineConnect=0;" parent="1" vertex="1">
          <mxGeometry x="40" y="90" width="20" height="470" as="geometry" />
        </mxCell>
        <mxCell id="5rCnG3w5GIJXIeiVDlWR-3" value="" style="endArrow=open;endFill=1;endSize=12;html=1;" parent="5rCnG3w5GIJXIeiVDlWR-1" target="5rCnG3w5GIJXIeiVDlWR-2" edge="1">
          <mxGeometry width="160" relative="1" as="geometry">
            <mxPoint x="10" y="100" as="sourcePoint" />
            <mxPoint x="170" y="100" as="targetPoint" />
          </mxGeometry>
        </mxCell>
        <mxCell id="5rCnG3w5GIJXIeiVDlWR-5" value="" style="endArrow=open;endFill=1;endSize=12;html=1;" parent="5rCnG3w5GIJXIeiVDlWR-1" target="5rCnG3w5GIJXIeiVDlWR-2" edge="1">
          <mxGeometry width="160" relative="1" as="geometry">
            <mxPoint x="10" y="160" as="sourcePoint" />
            <mxPoint x="170" y="160" as="targetPoint" />
          </mxGeometry>
        </mxCell>
        <mxCell id="5rCnG3w5GIJXIeiVDlWR-2" value="" style="shape=umlLifeline;participant=umlBoundary;perimeter=lifelinePerimeter;whiteSpace=wrap;html=1;container=1;collapsible=0;recursiveResize=0;verticalAlign=top;spacingTop=36;outlineConnect=0;" parent="1" vertex="1">
          <mxGeometry x="160" y="90" width="50" height="630" as="geometry" />
        </mxCell>
        <mxCell id="5rCnG3w5GIJXIeiVDlWR-16" value="dispatch" style="html=1;verticalAlign=bottom;endArrow=block;" parent="5rCnG3w5GIJXIeiVDlWR-2" target="5rCnG3w5GIJXIeiVDlWR-13" edge="1">
          <mxGeometry x="-0.5231" y="20" width="80" relative="1" as="geometry">
            <mxPoint x="25" y="180" as="sourcePoint" />
            <mxPoint x="100" y="180" as="targetPoint" />
            <mxPoint as="offset" />
          </mxGeometry>
        </mxCell>
        <mxCell id="5rCnG3w5GIJXIeiVDlWR-4" value="Người dùng chọn xem&lt;br&gt;&amp;nbsp;chi tiết một phòng trọ" style="text;html=1;align=center;verticalAlign=middle;resizable=0;points=[];autosize=1;" parent="1" vertex="1">
          <mxGeometry x="50" y="160" width="140" height="30" as="geometry" />
        </mxCell>
        <mxCell id="5rCnG3w5GIJXIeiVDlWR-6" value="Người dùng &lt;br&gt;chọn icon chat" style="text;html=1;align=center;verticalAlign=middle;resizable=0;points=[];autosize=1;" parent="1" vertex="1">
          <mxGeometry x="70" y="220" width="90" height="30" as="geometry" />
        </mxCell>
        <mxCell id="5rCnG3w5GIJXIeiVDlWR-13" value="" style="shape=umlLifeline;participant=umlControl;perimeter=lifelinePerimeter;whiteSpace=wrap;html=1;container=1;collapsible=0;recursiveResize=0;verticalAlign=top;spacingTop=36;outlineConnect=0;" parent="1" vertex="1">
          <mxGeometry x="480" y="90" width="40" height="580" as="geometry" />
        </mxCell>
        <mxCell id="5rCnG3w5GIJXIeiVDlWR-22" value="dispatch" style="html=1;verticalAlign=bottom;endArrow=block;" parent="5rCnG3w5GIJXIeiVDlWR-13" target="5rCnG3w5GIJXIeiVDlWR-15" edge="1">
          <mxGeometry width="80" relative="1" as="geometry">
            <mxPoint x="20" y="220" as="sourcePoint" />
            <mxPoint x="100" y="220" as="targetPoint" />
          </mxGeometry>
        </mxCell>
        <mxCell id="5rCnG3w5GIJXIeiVDlWR-32" value="dispatch" style="html=1;verticalAlign=bottom;endArrow=block;" parent="5rCnG3w5GIJXIeiVDlWR-13" target="5rCnG3w5GIJXIeiVDlWR-14" edge="1">
          <mxGeometry width="80" relative="1" as="geometry">
            <mxPoint x="20" y="410" as="sourcePoint" />
            <mxPoint x="100" y="410" as="targetPoint" />
          </mxGeometry>
        </mxCell>
        <mxCell id="5rCnG3w5GIJXIeiVDlWR-35" value="dispatch" style="html=1;verticalAlign=bottom;endArrow=block;" parent="5rCnG3w5GIJXIeiVDlWR-13" target="5rCnG3w5GIJXIeiVDlWR-34" edge="1">
          <mxGeometry width="80" relative="1" as="geometry">
            <mxPoint x="20" y="480" as="sourcePoint" />
            <mxPoint x="100" y="480" as="targetPoint" />
          </mxGeometry>
        </mxCell>
        <mxCell id="5rCnG3w5GIJXIeiVDlWR-14" value="" style="shape=umlLifeline;participant=umlEntity;perimeter=lifelinePerimeter;whiteSpace=wrap;html=1;container=1;collapsible=0;recursiveResize=0;verticalAlign=top;spacingTop=36;outlineConnect=0;" parent="1" vertex="1">
          <mxGeometry x="680" y="90" width="40" height="600" as="geometry" />
        </mxCell>
        <mxCell id="5rCnG3w5GIJXIeiVDlWR-15" value="" style="shape=umlLifeline;participant=umlBoundary;perimeter=lifelinePerimeter;whiteSpace=wrap;html=1;container=1;collapsible=0;recursiveResize=0;verticalAlign=top;spacingTop=36;outlineConnect=0;" parent="1" vertex="1">
          <mxGeometry x="320" y="90" width="50" height="640" as="geometry" />
        </mxCell>
        <mxCell id="5rCnG3w5GIJXIeiVDlWR-21" value="getChatBox()" style="text;html=1;align=center;verticalAlign=middle;resizable=0;points=[];autosize=1;" parent="1" vertex="1">
          <mxGeometry x="225" y="250" width="90" height="20" as="geometry" />
        </mxCell>
        <mxCell id="5rCnG3w5GIJXIeiVDlWR-23" value="Gọi view chatBox" style="text;html=1;align=center;verticalAlign=middle;resizable=0;points=[];autosize=1;" parent="1" vertex="1">
          <mxGeometry x="355" y="310" width="110" height="20" as="geometry" />
        </mxCell>
        <mxCell id="5rCnG3w5GIJXIeiVDlWR-24" value="return" style="html=1;verticalAlign=bottom;endArrow=open;dashed=1;endSize=8;" parent="1" source="5rCnG3w5GIJXIeiVDlWR-15" target="5rCnG3w5GIJXIeiVDlWR-13" edge="1">
          <mxGeometry x="-0.0495" relative="1" as="geometry">
            <mxPoint x="340" y="350" as="sourcePoint" />
            <mxPoint x="260" y="350" as="targetPoint" />
            <Array as="points">
              <mxPoint x="480" y="350" />
            </Array>
            <mxPoint as="offset" />
          </mxGeometry>
        </mxCell>
        <mxCell id="5rCnG3w5GIJXIeiVDlWR-25" value="view chatBox" style="text;html=1;align=center;verticalAlign=middle;resizable=0;points=[];autosize=1;" parent="1" vertex="1">
          <mxGeometry x="375" y="350" width="90" height="20" as="geometry" />
        </mxCell>
        <mxCell id="5rCnG3w5GIJXIeiVDlWR-26" value="return" style="html=1;verticalAlign=bottom;endArrow=open;dashed=1;endSize=8;" parent="1" target="5rCnG3w5GIJXIeiVDlWR-2" edge="1">
          <mxGeometry relative="1" as="geometry">
            <mxPoint x="500" y="380" as="sourcePoint" />
            <mxPoint x="420" y="380" as="targetPoint" />
          </mxGeometry>
        </mxCell>
        <mxCell id="5rCnG3w5GIJXIeiVDlWR-27" value="Hiển thị chatBox để người dùng nhập tin nhắn,&lt;br&gt;đồng thời hiển thị tin nhắn cũ" style="text;html=1;align=center;verticalAlign=middle;resizable=0;points=[];autosize=1;" parent="1" vertex="1">
          <mxGeometry x="210" y="375" width="270" height="30" as="geometry" />
        </mxCell>
        <mxCell id="5rCnG3w5GIJXIeiVDlWR-28" value="dispatch" style="html=1;verticalAlign=bottom;endArrow=block;" parent="1" source="5rCnG3w5GIJXIeiVDlWR-1" edge="1">
          <mxGeometry width="80" relative="1" as="geometry">
            <mxPoint x="100" y="420" as="sourcePoint" />
            <mxPoint x="180" y="420" as="targetPoint" />
          </mxGeometry>
        </mxCell>
        <mxCell id="5rCnG3w5GIJXIeiVDlWR-29" value="Người dùng nhập tin nhắn&lt;br&gt;và nhấn Enter" style="text;html=1;align=center;verticalAlign=middle;resizable=0;points=[];autosize=1;" parent="1" vertex="1">
          <mxGeometry x="40" y="420" width="160" height="30" as="geometry" />
        </mxCell>
        <mxCell id="5rCnG3w5GIJXIeiVDlWR-30" value="dispatch" style="html=1;verticalAlign=bottom;endArrow=block;" parent="1" target="5rCnG3w5GIJXIeiVDlWR-13" edge="1">
          <mxGeometry width="80" relative="1" as="geometry">
            <mxPoint x="190" y="470" as="sourcePoint" />
            <mxPoint x="260" y="470" as="targetPoint" />
          </mxGeometry>
        </mxCell>
        <mxCell id="5rCnG3w5GIJXIeiVDlWR-31" value="sendMessage()" style="text;html=1;align=center;verticalAlign=middle;resizable=0;points=[];autosize=1;" parent="1" vertex="1">
          <mxGeometry x="220" y="450" width="100" height="20" as="geometry" />
        </mxCell>
        <mxCell id="5rCnG3w5GIJXIeiVDlWR-33" value="createMessage(from, to, &lt;br&gt;message, is_read)" style="text;html=1;align=center;verticalAlign=middle;resizable=0;points=[];autosize=1;" parent="1" vertex="1">
          <mxGeometry x="520" y="500" width="150" height="30" as="geometry" />
        </mxCell>
        <mxCell id="5rCnG3w5GIJXIeiVDlWR-34" value="" style="shape=umlLifeline;participant=umlEntity;perimeter=lifelinePerimeter;whiteSpace=wrap;html=1;container=1;collapsible=0;recursiveResize=0;verticalAlign=top;spacingTop=36;outlineConnect=0;" parent="1" vertex="1">
          <mxGeometry x="800" y="90" width="40" height="570" as="geometry" />
        </mxCell>
        <mxCell id="5rCnG3w5GIJXIeiVDlWR-36" value="Gọi pusher để thực hiện sự kiện" style="text;html=1;align=center;verticalAlign=middle;resizable=0;points=[];autosize=1;" parent="1" vertex="1">
          <mxGeometry x="535" y="570" width="190" height="20" as="geometry" />
        </mxCell>
        <mxCell id="5rCnG3w5GIJXIeiVDlWR-37" value="dispatch" style="html=1;verticalAlign=bottom;endArrow=block;" parent="1" target="5rCnG3w5GIJXIeiVDlWR-13" edge="1">
          <mxGeometry width="80" relative="1" as="geometry">
            <mxPoint x="810" y="630" as="sourcePoint" />
            <mxPoint x="820" y="630" as="targetPoint" />
          </mxGeometry>
        </mxCell>
        <mxCell id="5rCnG3w5GIJXIeiVDlWR-38" value="getChatBox()" style="text;html=1;align=center;verticalAlign=middle;resizable=0;points=[];autosize=1;" parent="1" vertex="1">
          <mxGeometry x="585" y="630" width="90" height="20" as="geometry" />
        </mxCell>
        <mxCell id="5rCnG3w5GIJXIeiVDlWR-41" value="dispatch" style="html=1;verticalAlign=bottom;endArrow=block;" parent="1" target="5rCnG3w5GIJXIeiVDlWR-15" edge="1">
          <mxGeometry width="80" relative="1" as="geometry">
            <mxPoint x="490" y="650" as="sourcePoint" />
            <mxPoint x="470" y="650" as="targetPoint" />
          </mxGeometry>
        </mxCell>
        <mxCell id="5rCnG3w5GIJXIeiVDlWR-42" value="Gọi view chatBox" style="text;html=1;align=center;verticalAlign=middle;resizable=0;points=[];autosize=1;" parent="1" vertex="1">
          <mxGeometry x="345" y="650" width="110" height="20" as="geometry" />
        </mxCell>
        <mxCell id="5rCnG3w5GIJXIeiVDlWR-43" value="return" style="html=1;verticalAlign=bottom;endArrow=open;dashed=1;endSize=8;" parent="1" target="5rCnG3w5GIJXIeiVDlWR-2" edge="1">
          <mxGeometry relative="1" as="geometry">
            <mxPoint x="340" y="690" as="sourcePoint" />
            <mxPoint x="260" y="690" as="targetPoint" />
          </mxGeometry>
        </mxCell>
        <mxCell id="5rCnG3w5GIJXIeiVDlWR-44" value="Tin nhắn vừa nhập được hiển thị&lt;br&gt;trong chatBox" style="text;html=1;align=center;verticalAlign=middle;resizable=0;points=[];autosize=1;" parent="1" vertex="1">
          <mxGeometry x="145" y="685" width="190" height="30" as="geometry" />
        </mxCell>
        <mxCell id="TUDsC8EDOVCqgr43-JaN-1" value="Người dùng" style="text;html=1;align=center;verticalAlign=middle;resizable=0;points=[];autosize=1;" vertex="1" parent="1">
          <mxGeometry y="60" width="80" height="20" as="geometry" />
        </mxCell>
        <mxCell id="TUDsC8EDOVCqgr43-JaN-2" value="Giao diện trang chủ" style="text;html=1;align=center;verticalAlign=middle;resizable=0;points=[];autosize=1;" vertex="1" parent="1">
          <mxGeometry x="120" y="70" width="120" height="20" as="geometry" />
        </mxCell>
        <mxCell id="TUDsC8EDOVCqgr43-JaN-3" value="View ChatBox" style="text;html=1;align=center;verticalAlign=middle;resizable=0;points=[];autosize=1;" vertex="1" parent="1">
          <mxGeometry x="295" y="70" width="90" height="20" as="geometry" />
        </mxCell>
        <mxCell id="TUDsC8EDOVCqgr43-JaN-4" value="ChatRealtimeController" style="text;html=1;align=center;verticalAlign=middle;resizable=0;points=[];autosize=1;" vertex="1" parent="1">
          <mxGeometry x="415" y="70" width="150" height="20" as="geometry" />
        </mxCell>
        <mxCell id="TUDsC8EDOVCqgr43-JaN-5" value="MessageModel&lt;br&gt;" style="text;html=1;align=center;verticalAlign=middle;resizable=0;points=[];autosize=1;" vertex="1" parent="1">
          <mxGeometry x="630" y="70" width="100" height="20" as="geometry" />
        </mxCell>
        <mxCell id="TUDsC8EDOVCqgr43-JaN-6" value="Pusher" style="text;html=1;align=center;verticalAlign=middle;resizable=0;points=[];autosize=1;" vertex="1" parent="1">
          <mxGeometry x="790" y="70" width="60" height="20" as="geometry" />
        </mxCell>
      </root>
    </mxGraphModel>
  </diagram>
</mxfile>
